<?xml version="1.0" encoding="UTF-8"?>
<svg width="591px" height="578px" viewBox="0 0 591 578" version="1.1" xmlns="http://www.w3.org/2000/svg" xmlns:xlink="http://www.w3.org/1999/xlink">
    <!-- Generator: Sketch 44.1 (41455) - http://www.bohemiancoding.com/sketch -->
    <title>icecream</title>
    <desc>Created with Sketch.</desc>
    <defs></defs>
    <g id="Page-1" stroke="none" stroke-width="1" fill="none" fill-rule="evenodd">
        <g id="icecream" fill-rule="nonzero" fill="#231F20">
            <g id="Layer_3" transform="translate(22.000000, 416.000000)">
                <path d="M72.604,59.967 L72.604,64.24 C72.309,65.029 72.563,66.131 72.204,66.959 C70.54,80.951 58.14,93.658 43.757,96.107 C42.292,96.662 40.562,96.65 39.06,96.884 L33.558,96.884 C32.054,96.65 30.324,96.661 28.861,96.107 C13.349,93.529 0.716,79.099 0.011,64.111 L0.011,59.709 C0.503,56.779 1.128,53.736 2.325,50.936 C3.538,48.686 4.786,46.444 6.218,44.334 L10.78,38.373 C20.983,26.662 29.921,14.088 36.643,0.381 L38.495,4.17 C44.05,17.232 52.811,28.799 62.38,39.67 C63.413,41.135 64.526,42.557 65.735,43.943 C67.532,46.611 69.29,49.306 70.7,52.232 C71.663,54.709 72.268,57.377 72.604,59.967 L72.604,59.967 Z" id="path412"></path>
            </g>
            <g id="Layer_2">
                <path d="M429.275,460.21 L537.468,568.403 C549.572,580.507 569.194,580.507 581.297,568.403 C593.401,556.299 593.401,536.676 581.297,524.573 L473.105,416.381 L429.275,460.21 Z" id="Shape"></path>
                <g id="Group" transform="translate(224.000000, 224.000000)">
                    <path d="M68.277,283.081 L77.911,292.715 C91.229,306.034 112.854,306.004 126.212,292.647 L136.738,282.121 L68.277,283.081 Z" id="Shape"></path>
                    <polygon id="Shape" points="32.788 247.592 54.084 268.888 151.337 267.521 173.239 245.62"></polygon>
                    <polygon id="Shape" points="3.191 212.021 0.204 215.008 18.595 233.398 187.839 231.02 209.739 209.12"></polygon>
                    <polygon id="Shape" points="39.691 175.521 17.795 197.417 224.342 194.518 246.239 172.62"></polygon>
                    <polygon id="Shape" points="76.194 139.018 54.292 160.92 260.84 158.019 282.743 136.116"></polygon>
                    <path d="M90.792,124.42 L296.603,121.53 C301.156,115.071 303.215,107.399 302.776,99.847 L112.695,102.517 L90.792,124.42 Z" id="Shape"></path>
                    <path d="M127.298,87.914 L298.673,85.507 C297.153,82.726 295.225,80.109 292.871,77.755 L279.307,64.191 L149.195,66.018 L127.298,87.914 Z" id="Shape"></path>
                    <polygon id="Shape" points="185.694 29.517 163.797 51.415 265.108 49.992 243.817 28.701"></polygon>
                    <polygon id="Shape" points="200.299 14.913 229.617 14.5 215.164 0.047"></polygon>
                </g>
                <path d="M44.929,44.772 C-14.429,104.13 -14.431,200.373 44.929,259.732 L60.155,274.959 L275.115,59.999 L259.889,44.772 C200.529,-14.587 104.287,-14.586 44.929,44.772 Z" id="Shape"></path>
                <rect id="Rectangle-path" transform="translate(150.659104, 348.497575) rotate(-45.000000) translate(-150.659104, -348.497575) " x="138.659219" y="248.499034" width="23.9997698" height="199.997082"></rect>
                <rect id="Rectangle-path" transform="translate(178.941057, 320.227881) rotate(-45.000000) translate(-178.941057, -320.227881) " x="166.941172" y="220.228841" width="23.9997698" height="199.998082"></rect>
                <rect id="Rectangle-path" transform="translate(207.226357, 291.944249) rotate(-45.000000) translate(-207.226357, -291.944249) " x="195.226472" y="191.945208" width="23.9997698" height="199.998082"></rect>
                <rect id="Rectangle-path" transform="translate(235.512204, 263.645762) rotate(-45.000000) translate(-235.512204, -263.645762) " x="223.512319" y="163.646221" width="23.9997698" height="199.999082"></rect>
                <rect id="Rectangle-path" transform="translate(263.797057, 235.360969) rotate(-45.000000) translate(-263.797057, -235.360969) " x="251.797172" y="135.361928" width="23.9997698" height="199.998082"></rect>
                <rect id="Rectangle-path" transform="translate(292.082664, 207.085036) rotate(-45.000000) translate(-292.082664, -207.085036) " x="280.082279" y="107.085495" width="24.0007698" height="199.999082"></rect>
                <rect id="Rectangle-path" transform="translate(320.366164, 178.793596) rotate(-45.000000) translate(-320.366164, -178.793596) " x="308.366279" y="78.7945552" width="23.9997698" height="199.998082"></rect>
                <rect id="Rectangle-path" transform="translate(348.650264, 150.510063) rotate(-45.000000) translate(-348.650264, -150.510063) " x="336.650379" y="50.5110224" width="23.9997698" height="199.998082"></rect>
            </g>
        </g>
    </g>
</svg>